name C:\Users\u0101727\Documents\MyRepositories\upper-imu-dc\Results\main_tracking\Case_14\ABD01_orientations_groundFrame.mot
datacolumns 13
datarows 32
range 6.31000000 6.62000000
endheader 
time	radius_imu_[0][0]	radius_imu_[0][1]	radius_imu_[0][2]	radius_imu_[1][0]	radius_imu_[1][1]	radius_imu_[1][2]	radius_imu_[2][0]	radius_imu_[2][1]	radius_imu_[2][2]	radius_imu_x	radius_imu_y	radius_imu_z	
          6.31000000	          0.99612678	         -0.00258685	         -0.08789055	          0.04007570	         -0.87635256	          0.48000013	         -0.07826479	         -0.48166326	         -0.87285459	         -2.63881092	         -0.08800410	          0.00259691	
          6.32000000	          0.99581311	         -0.00595795	         -0.09121817	          0.03827611	         -0.87900891	          0.47526652	         -0.08301320	         -0.47676811	         -0.87510055	         -2.64406289	         -0.09134515	          0.00598293	
          6.33000000	          0.99547794	         -0.00940067	         -0.09452673	          0.03635240	         -0.88164394	          0.47051299	         -0.08776206	         -0.47182157	         -0.87731535	         -2.64932072	         -0.09466807	          0.00944309	
          6.34000000	          0.99511837	         -0.01288997	         -0.09784312	          0.03433858	         -0.88425754	          0.46573540	         -0.09252183	         -0.46682164	         -0.87949830	         -2.65458806	         -0.09799991	          0.01295248	
          6.35000000	          0.99473380	         -0.01640061	         -0.10117160	          0.03225841	         -0.88684816	          0.46093355	         -0.09728344	         -0.46176982	         -0.88164878	         -2.65986512	         -0.10134499	          0.01648595	
          6.36000000	          0.99432639	         -0.01990904	         -0.10449244	          0.03012383	         -0.88941230	          0.45611217	         -0.10201761	         -0.45667208	         -0.88376638	         -2.66514785	         -0.10468353	          0.02001997	
          6.37000000	          0.99390074	         -0.02339426	         -0.10776839	          0.02793783	         -0.89194455	          0.45128084	         -0.10668080	         -0.45153918	         -0.88585076	         -2.67042784	         -0.10797809	          0.02353348	
          6.38000000	          0.99346267	         -0.02683764	         -0.11095795	          0.02570088	         -0.89443807	          0.44645269	         -0.11122675	         -0.44638580	         -0.88790108	         -2.67569314	         -0.11118690	          0.02700767	
          6.39000000	          0.99301734	         -0.03022196	         -0.11403153	          0.02341901	         -0.89688561	          0.44164210	         -0.11562053	         -0.44122877	         -0.88991520	         -2.68092999	         -0.11428012	          0.03042508	
          6.40000000	          0.99256750	         -0.03353023	         -0.11698497	          0.02111011	         -0.89928075	          0.43686209	         -0.11985041	         -0.43608468	         -0.89188902	         -2.68612486	         -0.11725346	          0.03376846	
          6.41000000	          0.99211237	         -0.03674505	         -0.11984514	          0.01880608	         -0.90161885	          0.43212241	         -0.12393299	         -0.43096781	         -0.89381618	         -2.69126616	         -0.12013389	          0.03702026	
          6.42000000	          0.99164778	         -0.03984881	         -0.12266519	          0.01654963	         -0.90389749	          0.42742886	         -0.12790929	         -0.42588895	         -0.89568846	         -2.69634509	         -0.12297491	          0.04016283	
          6.43000000	          0.99116751	         -0.04282450	         -0.12551109	          0.01438718	         -0.90611628	          0.42278398	         -0.13183316	         -0.42085550	         -0.89749689	         -2.70135561	         -0.12584298	          0.04317926	
          6.44000000	          0.99066521	         -0.04565678	         -0.12844414	          0.01236030	         -0.90827611	          0.41818862	         -0.13575589	         -0.41587253	         -0.89923322	         -2.70629367	         -0.12879996	          0.04605440	
          6.45000000	          0.99013646	         -0.04833288	         -0.13150558	          0.01049878	         -0.91037837	          0.41364357	         -0.13971242	         -0.41094423	         -0.90089138	         -2.71115634	         -0.13188760	          0.04877565	
          6.46000000	          0.98958004	         -0.05084294	         -0.13470832	          0.00881755	         -0.91242423	          0.40915068	         -0.14371356	         -0.40607515	         -0.90246850	         -2.71594111	         -0.13511910	          0.05133316	
          6.47000000	          0.98899821	         -0.05317961	         -0.13803794	          0.00731808	         -0.91441442	          0.40471312	         -0.14774636	         -0.40127072	         -0.90396505	         -2.72064571	         -0.13848011	          0.05371945	
          6.48000000	          0.98839588	         -0.05533716	         -0.14146159	          0.00599335	         -0.91634941	          0.40033465	         -0.15178163	         -0.39653695	         -0.90538433	         -2.72526841	         -0.14193770	          0.05592845	
          6.49000000	          0.98777919	         -0.05731046	         -0.14494062	          0.00483406	         -0.91822983	          0.39601844	         -0.15578480	         -0.39187943	         -0.90673128	         -2.72980860	         -0.14545296	          0.05795454	
          6.50000000	          0.98715401	         -0.05909443	         -0.14844128	          0.00383325	         -0.92005691	          0.39176598	         -0.15972562	         -0.38730237	         -0.90801134	         -2.73426734	         -0.14899191	          0.05979208	
          6.51000000	          0.98652502	         -0.06068435	         -0.15194008	          0.00298788	         -0.92183262	          0.38757668	         -0.16358316	         -0.38280807	         -0.90922963	         -2.73864739	         -0.15253085	          0.06143583	
          6.52000000	          0.98589560	         -0.06207700	         -0.15542298	          0.00229727	         -0.92355948	          0.38344830	         -0.16734569	         -0.37839705	         -0.91039063	         -2.74295272	         -0.15605562	          0.06288207	
          6.53000000	          0.98526825	         -0.06327210	         -0.15888085	          0.00175992	         -0.92524015	          0.37937787	         -0.17100697	         -0.37406859	         -0.91149839	         -2.74718778	         -0.15955700	          0.06413008	
          6.54000000	          0.98464520	         -0.06427353	         -0.16230448	          0.00137041	         -0.92687703	          0.37536261	         -0.17456217	         -0.36982142	         -0.91255694	         -2.75135682	         -0.16302565	          0.06518335	
          6.55000000	          0.98402881	         -0.06509015	         -0.16568214	          0.00111790	         -0.92847210	          0.37140047	         -0.17800576	         -0.36565398	         -0.91357053	         -2.75546343	         -0.16644967	          0.06605037	
          6.56000000	          0.98342134	         -0.06573587	         -0.16900076	          0.00098633	         -0.93002691	          0.36749009	         -0.18133254	         -0.36156429	         -0.91454348	         -2.75951055	         -0.16981576	          0.06674476	
          6.57000000	          0.98282428	         -0.06622935	         -0.17225011	          0.00095629	         -0.93154289	          0.36363020	         -0.18454136	         -0.35754932	         -0.91547964	         -2.76350080	         -0.17311347	          0.06728504	
          6.58000000	          0.98223753	         -0.06659318	         -0.17542741	          0.00100713	         -0.93302159	          0.35981899	         -0.18763905	         -0.35360439	         -0.91638175	         -2.76743690	         -0.17633990	          0.06769384	
          6.59000000	          0.98165885	         -0.06685298	         -0.17854017	          0.00111862	         -0.93446487	          0.35605359	         -0.19064276	         -0.34972288	         -0.91725092	         -2.77132189	         -0.17950258	          0.06799706	
          6.60000000	          0.98108378	         -0.06703626	         -0.18160604	          0.00127179	         -0.93587490	          0.35233016	         -0.19357943	         -0.34589638	         -0.91808644	         -2.77515914	         -0.18261940	          0.06822274	
          6.61000000	          0.98050620	         -0.06717137	         -0.18464993	          0.00144874	         -0.93725402	          0.34864424	         -0.19648280	         -0.34211535	         -0.91888606	         -2.77895209	         -0.18571566	          0.06839996	
          6.62000000	          0.97991913	         -0.06728673	         -0.18769920	          0.00163178	         -0.93860438	          0.34499152	         -0.19938864	         -0.33837008	         -0.91964659	         -2.78270373	         -0.18881918	          0.06855798	
